<svg xmlns="http://www.w3.org/2000/svg" viewBox="0 0 500 500"><g id="freepik--background-complete--inject-6"><rect x="83.65" y="142.29" width="99.46" height="166.27" style="fill:#f0f0f0"></rect><path d="M81.64,141.65V310h104V141.65Zm5.51,6.52h92.94v27.32H87.15Zm92.94,156.28H87.15V181.19h92.94Z" style="fill:#e6e6e6"></path><polygon points="157.77 181.19 132.42 181.19 100.83 304.15 126.18 304.15 157.77 181.19" style="fill:#fafafa"></polygon><polygon points="139.64 304.45 133.38 304.45 164.97 181.19 171.23 181.19 139.64 304.45" style="fill:#fafafa"></polygon><polygon points="127.51 148.18 109.5 148.18 95.64 175.49 113.65 175.49 127.51 148.18" style="fill:#fafafa"></polygon><polygon points="132.13 175.49 121.5 175.49 135.36 148.18 145.98 148.18 132.13 175.49" style="fill:#fafafa"></polygon><rect x="78.35" y="209.32" width="110.07" height="4.48" style="fill:#e0e0e0"></rect><rect x="78.35" y="217.07" width="110.07" height="4.48" style="fill:#e0e0e0"></rect><rect x="78.35" y="224.81" width="110.07" height="4.48" style="fill:#e0e0e0"></rect><rect x="78.35" y="232.56" width="110.07" height="4.48" style="fill:#e0e0e0"></rect><rect x="78.35" y="240.3" width="110.07" height="4.48" style="fill:#e0e0e0"></rect><rect x="78.35" y="201.58" width="110.07" height="4.48" style="fill:#e0e0e0"></rect><rect x="78.35" y="193.83" width="110.07" height="4.48" style="fill:#e0e0e0"></rect><rect x="78.35" y="186.09" width="110.07" height="4.48" style="fill:#e0e0e0"></rect><rect x="78.35" y="178.34" width="110.07" height="4.48" style="fill:#e0e0e0"></rect><rect x="78.35" y="170.6" width="110.07" height="4.48" style="fill:#e0e0e0"></rect><rect x="78.35" y="162.85" width="110.07" height="4.48" style="fill:#e0e0e0"></rect><rect x="78.35" y="155.1" width="110.07" height="4.48" style="fill:#e0e0e0"></rect><rect x="78.35" y="147.36" width="110.07" height="4.48" style="fill:#e0e0e0"></rect><rect x="78.35" y="139.61" width="110.07" height="4.48" style="fill:#e0e0e0"></rect><rect y="382.4" width="500" height="0.25" style="fill:#ebebeb"></rect><rect x="416.78" y="398.49" width="33.12" height="0.25" style="fill:#ebebeb"></rect><rect x="322.53" y="401.21" width="8.69" height="0.25" style="fill:#ebebeb"></rect><rect x="396.59" y="389.21" width="19.19" height="0.25" style="fill:#ebebeb"></rect><rect x="52.46" y="390.89" width="43.19" height="0.25" style="fill:#ebebeb"></rect><rect x="104.56" y="390.89" width="6.33" height="0.25" style="fill:#ebebeb"></rect><rect x="131.47" y="395.11" width="93.68" height="0.25" style="fill:#ebebeb"></rect><path d="M237,337.8H43.91a5.71,5.71,0,0,1-5.7-5.71V60.66A5.71,5.71,0,0,1,43.91,55H237a5.71,5.71,0,0,1,5.71,5.71V332.09A5.71,5.71,0,0,1,237,337.8ZM43.91,55.2a5.46,5.46,0,0,0-5.45,5.46V332.09a5.46,5.46,0,0,0,5.45,5.46H237a5.47,5.47,0,0,0,5.46-5.46V60.66A5.47,5.47,0,0,0,237,55.2Z" style="fill:#ebebeb"></path><path d="M453.31,337.8H260.21a5.72,5.72,0,0,1-5.71-5.71V60.66A5.72,5.72,0,0,1,260.21,55h193.1A5.71,5.71,0,0,1,459,60.66V332.09A5.71,5.71,0,0,1,453.31,337.8ZM260.21,55.2a5.47,5.47,0,0,0-5.46,5.46V332.09a5.47,5.47,0,0,0,5.46,5.46h193.1a5.47,5.47,0,0,0,5.46-5.46V60.66a5.47,5.47,0,0,0-5.46-5.46Z" style="fill:#ebebeb"></path><rect x="233.86" y="168.76" width="146.22" height="214.37" transform="translate(613.94 551.89) rotate(180)" style="fill:#f0f0f0"></rect><rect x="239.03" y="175.51" width="135.88" height="39.59" transform="translate(613.94 390.61) rotate(180)" style="fill:#e0e0e0"></rect><rect x="367.19" y="181.92" width="7.72" height="33.18" transform="translate(742.1 397.02) rotate(180)" style="fill:#ebebeb"></rect><rect x="329.87" y="181.92" width="7.72" height="33.18" transform="translate(667.45 397.02) rotate(180)" style="fill:#ebebeb"></rect><rect x="284.62" y="181.5" width="7.72" height="33.18" transform="translate(539.12 442.31) rotate(-170.22)" style="fill:#ebebeb"></rect><rect x="357.63" y="186.29" width="7.72" height="28.81" transform="translate(722.97 401.39) rotate(180)" style="fill:#ebebeb"></rect><rect x="339.88" y="186.29" width="7.72" height="28.81" transform="translate(687.49 401.39) rotate(180)" style="fill:#ebebeb"></rect><rect x="295.1" y="186.29" width="7.72" height="28.81" transform="translate(597.92 401.39) rotate(180)" style="fill:#ebebeb"></rect><rect x="316.51" y="185.8" width="7.72" height="28.81" transform="translate(589.69 465.13) rotate(-167.47)" style="fill:#ebebeb"></rect><rect x="350.95" y="180.27" width="3.86" height="34.83" transform="translate(705.76 395.37) rotate(180)" style="fill:#ebebeb"></rect><rect x="305.04" y="180.27" width="3.86" height="34.83" transform="translate(613.94 395.37) rotate(180)" style="fill:#ebebeb"></rect><rect x="239.03" y="221.37" width="135.88" height="39.59" style="fill:#e0e0e0"></rect><rect x="239.03" y="227.78" width="7.72" height="33.18" style="fill:#ebebeb"></rect><rect x="276.35" y="227.78" width="7.72" height="33.18" style="fill:#ebebeb"></rect><rect x="321.6" y="227.37" width="7.72" height="33.18" transform="translate(-36.7 58.82) rotate(-9.78)" style="fill:#ebebeb"></rect><rect x="248.59" y="232.15" width="7.72" height="28.81" style="fill:#ebebeb"></rect><rect x="266.33" y="232.15" width="7.72" height="28.81" style="fill:#ebebeb"></rect><rect x="311.12" y="232.15" width="7.72" height="28.81" style="fill:#ebebeb"></rect><rect x="289.71" y="231.66" width="7.72" height="28.81" transform="translate(-46.38 69.53) rotate(-12.53)" style="fill:#ebebeb"></rect><rect x="259.13" y="226.13" width="3.86" height="34.83" style="fill:#ebebeb"></rect><rect x="305.04" y="226.13" width="3.86" height="34.83" style="fill:#ebebeb"></rect><rect x="367.19" y="227.78" width="7.72" height="33.18" transform="translate(742.1 488.74) rotate(180)" style="fill:#ebebeb"></rect><rect x="357.63" y="232.15" width="7.72" height="28.81" transform="translate(722.97 493.11) rotate(180)" style="fill:#ebebeb"></rect><rect x="339.88" y="232.15" width="7.72" height="28.81" transform="translate(687.49 493.11) rotate(180)" style="fill:#ebebeb"></rect><rect x="350.95" y="226.13" width="3.86" height="34.83" transform="translate(705.76 487.09) rotate(180)" style="fill:#ebebeb"></rect><rect x="239.03" y="267.23" width="135.88" height="39.59" transform="translate(613.94 574.06) rotate(180)" style="fill:#e0e0e0"></rect><rect x="289.2" y="273.64" width="7.72" height="33.18" transform="translate(586.12 580.47) rotate(180)" style="fill:#ebebeb"></rect><rect x="243.95" y="273.23" width="7.72" height="33.18" transform="translate(442.8 617.51) rotate(-170.22)" style="fill:#ebebeb"></rect><rect x="316.96" y="278.01" width="7.72" height="28.81" transform="translate(641.64 584.84) rotate(180)" style="fill:#ebebeb"></rect><rect x="299.22" y="278.01" width="7.72" height="28.81" transform="translate(606.15 584.84) rotate(180)" style="fill:#ebebeb"></rect><rect x="254.43" y="278.01" width="7.72" height="28.81" transform="translate(516.59 584.84) rotate(180)" style="fill:#ebebeb"></rect><rect x="275.84" y="277.52" width="7.72" height="28.81" transform="translate(489.43 637.57) rotate(-167.47)" style="fill:#ebebeb"></rect><rect x="310.28" y="271.99" width="3.86" height="34.83" transform="translate(624.43 578.82) rotate(180)" style="fill:#ebebeb"></rect><rect x="264.37" y="271.99" width="3.86" height="34.83" transform="translate(532.6 578.82) rotate(180)" style="fill:#ebebeb"></rect><rect x="332.76" y="273.23" width="7.72" height="33.18" transform="translate(619.12 632.6) rotate(-170.22)" style="fill:#ebebeb"></rect><rect x="343.24" y="278.01" width="7.72" height="28.81" transform="translate(694.19 584.84) rotate(180)" style="fill:#ebebeb"></rect><rect x="364.65" y="277.52" width="7.72" height="28.81" transform="translate(664.92 656.83) rotate(-167.47)" style="fill:#ebebeb"></rect><rect x="353.18" y="271.99" width="3.86" height="34.83" transform="translate(710.21 578.82) rotate(180)" style="fill:#ebebeb"></rect><rect x="380.08" y="168.76" width="25.23" height="214.94" style="fill:#e0e0e0"></rect><rect x="345.74" y="87.16" width="26.99" height="38.19" transform="translate(465.48 -252.98) rotate(90)" style="fill:#f0f0f0"></rect><rect x="347.5" y="88.95" width="23.47" height="34.6" transform="translate(465.48 -252.98) rotate(90)" style="fill:#fafafa"></rect><rect x="332.49" y="121.06" width="26.99" height="38.19" transform="translate(486.15 -205.83) rotate(90)" style="fill:#f0f0f0"></rect><rect x="334.25" y="122.86" width="23.47" height="34.6" transform="translate(486.15 -205.83) rotate(90)" style="fill:#fafafa"></rect><rect x="308.59" y="85.36" width="24.3" height="34.39" transform="translate(641.48 205.11) rotate(180)" style="fill:#f0f0f0"></rect><rect x="310.17" y="86.98" width="21.13" height="31.15" transform="translate(641.48 205.11) rotate(180)" style="fill:#fafafa"></rect><rect x="294.76" y="126.66" width="26.99" height="38.19" transform="translate(616.52 291.52) rotate(180)" style="fill:#f0f0f0"></rect><rect x="296.52" y="128.46" width="23.47" height="34.6" transform="translate(616.52 291.52) rotate(180)" style="fill:#fafafa"></rect><rect x="274.82" y="94.23" width="21.13" height="29.9" transform="translate(176.2 394.57) rotate(-90)" style="fill:#f0f0f0"></rect><rect x="276.2" y="95.64" width="18.38" height="27.09" transform="translate(176.2 394.57) rotate(-90)" style="fill:#fafafa"></rect></g><g id="freepik--Shadow--inject-6"><ellipse id="freepik--path--inject-6" cx="250" cy="416.24" rx="193.89" ry="11.32" style="fill:#f5f5f5"></ellipse></g><g id="freepik--Character--inject-6"><polygon points="166.23 226.63 185.31 209.1 171.77 201.47 152.69 213.81 166.23 226.63" style="fill:#e4897b"></polygon><path d="M223.05,268.13c-13.6-1.17-73.46-9.08-75.71-13.56,3.51-3.9,32.31-35.26,32.31-35.26L165.16,203s-71.68,36-59.46,58.62,120.55,47.65,120.55,47.65Z" style="fill:#407BFF"></path><path d="M147.34,254.57l-5.62,6.83,20.08-2.21C154.51,257.57,148.65,256.37,147.34,254.57Z" style="opacity:0.2"></path><path d="M237.4,399.65c-26.68-78.75-24.75-126.82-14.35-131.52,0,0,24.19-11.67,26.1-12.26,12.34-3.83,33-10.16,47.61-10.16,29.59,0,35.66,4.29,35.66,4.29,2.5,26.06,6.13,41.16,9.93,63.64,2.79,16.44,6.14,31.94,9.51,45.9s8.09,29.79,11,40.11Z" style="fill:#263238"></path><path d="M305.33,246.17c-1.42,16-2.53,32.79-7.23,39.93,0,0-13.31,18.79-30,24.08-16.91,5.36-26.33-9.9-28.88-16.43-2.94-7.26-1.12-20.59,1.6-34.13,2.31-1.42,6.2-2.65,8.33-3.75a209.9,209.9,0,0,1,43-10A67.55,67.55,0,0,1,305.33,246.17Z" style="fill:#407BFF"></path><path d="M290.19,248.92s-21.2,25.49-28.88,27c-5.38,1.09-15-6.06-15-6.06a23.15,23.15,0,0,0,7-8.48c3.77-8.42-1.19-16.62-7.23-23.8l15.74-35.77a152.72,152.72,0,0,0,7.64,21.89v0C274.5,235.29,281.53,246.11,290.19,248.92Z" style="fill:#e4897b"></path><path d="M269.4,223.72v0c.55,14.05-2.05,30.95-16.16,37.65,3.77-8.42-1.19-16.62-7.23-23.8l15.74-35.77A152.72,152.72,0,0,0,269.4,223.72Z" style="opacity:0.2"></path><path d="M197.45,194.2c.91,8.46,8.86,23.17,17.08,13.67S195.89,179.67,197.45,194.2Z" style="fill:#263238"></path><path d="M218.51,233.71c.51.57,1,1.13,1.54,1.67,13.84,14.35,38.3,11.35,46.16-6.63a27.62,27.62,0,0,0,1.5-4.39c3.7-14.5-2.81-24.91-12.3-43.52S220.15,158.9,206.86,176C193.89,192.72,205.65,219.33,218.51,233.71Z" style="fill:#e4897b"></path><path d="M258.64,156.4,236,161.73l3.06,13c.35-.37.76-.73,1.09-1.09,0,0,6.74,18.32,19.25,21.69C270.76,180.15,269.86,160.88,258.64,156.4Z" style="fill:#263238"></path><path d="M272.28,190.67a19.55,19.55,0,0,1-2.6,14.88c-3.79,5.83-10.32,3.56-13.15-2.4-2.54-5.36-3.64-14.85,2-18.61S270.81,184.41,272.28,190.67Z" style="fill:#e4897b"></path><path d="M220,209s1.36,10.11,0,16.2c3.92.8,7.7-2.87,7.7-2.87Z" style="fill:#de5753"></path><path d="M242,224.11a15.84,15.84,0,0,1,2.21.19.5.5,0,0,1,.42.57.49.49,0,0,1-.56.41,13.34,13.34,0,0,0-11.61,3.56.5.5,0,0,1-.75-.67A13.88,13.88,0,0,1,242,224.11Z" style="fill:#263238"></path><path d="M231.17,194.25a1,1,0,0,1-1,.06,8.08,8.08,0,0,0-7.24-.15,1,1,0,0,1-1.38-.35,1,1,0,0,1,.36-1.36,10,10,0,0,1,9.15.08,1,1,0,0,1,.45,1.34A.93.93,0,0,1,231.17,194.25Z" style="fill:#263238"></path><path d="M204.89,210.81a1,1,0,0,1-1.61-.71,9.79,9.79,0,0,1,3.36-8.42,1,1,0,0,1,1.41.18,1,1,0,0,1-.18,1.39,7.67,7.67,0,0,0-2.59,6.7A1,1,0,0,1,204.89,210.81Z" style="fill:#263238"></path><path d="M267.32,168.88c-1-8.08.78-13.33-12.87-19.06C240.42,143.92,232,147,232,147s-34.42,9.79-38.7,21.9c-4.68,13.25-6.93,34,2.48,34s14-8.74,18-14.09,10-13,10-13c7.27,3,8.67,3.6,15,4.76a9.29,9.29,0,0,0,8.53-2.82,8.46,8.46,0,0,0,1.08-1.33Z" style="fill:#263238"></path><path d="M221.48,188.07a4.1,4.1,0,0,0,2.78-2.92c.48-2.29-2.3-3.72-2.3-3.72s3.88,2.1,3.29,3.85S221.48,188.07,221.48,188.07Z" style="opacity:0.2"></path><path d="M223.44,179.75a4.09,4.09,0,0,0,2.92,2.77c2.29.48,3.72-2.3,3.72-2.3s-2.09,3.88-3.84,3.29S223.44,179.75,223.44,179.75Z" style="opacity:0.2"></path><path d="M231.53,181.47a4.1,4.1,0,0,0-2.78,2.92c-.48,2.29,2.3,3.72,2.3,3.72s-3.88-2.1-3.29-3.85S231.53,181.47,231.53,181.47Z" style="opacity:0.2"></path><path d="M229.57,189.79a4.09,4.09,0,0,0-2.92-2.77c-2.29-.48-3.72,2.3-3.72,2.3s2.1-3.88,3.85-3.29S229.57,189.79,229.57,189.79Z" style="opacity:0.2"></path><path d="M230.69,197.52a6.25,6.25,0,0,0-6.24,6.24,5.3,5.3,0,0,0,10.59,0,4.35,4.35,0,0,0-8.7,0,3.4,3.4,0,1,0,6.8,0,2.45,2.45,0,0,0-4.9,0,1.51,1.51,0,0,0,3,0,.45.45,0,0,0-.45-.45h-.22a.45.45,0,0,0-.45.45.39.39,0,0,1-.39.39.4.4,0,0,1-.39-.39,1.34,1.34,0,0,1,2.68,0,2.29,2.29,0,0,1-4.57,0,3.23,3.23,0,0,1,6.46,0,4.18,4.18,0,0,1-8.36,0,5.13,5.13,0,0,1,10.26,0,.44.44,0,0,0,.44.44h.23a.44.44,0,0,0,.44-.44A6.25,6.25,0,0,0,230.69,197.52Z" style="fill:#263238"></path><path d="M212.12,208.41a6.25,6.25,0,0,0-6.25,6.24,5.3,5.3,0,0,0,10.6,0,4.35,4.35,0,0,0-8.7,0,3.4,3.4,0,0,0,6.8,0,2.46,2.46,0,0,0-4.91,0,1.51,1.51,0,0,0,3,0,.43.43,0,0,0-.44-.44H212a.44.44,0,0,0-.45.44.39.39,0,0,1-.78,0,1.34,1.34,0,0,1,2.68,0,2.29,2.29,0,0,1-4.58,0,3.24,3.24,0,0,1,6.47,0,4.18,4.18,0,0,1-8.36,0,5.13,5.13,0,1,1,10.26,0,.45.45,0,0,0,.44.45h.23a.45.45,0,0,0,.44-.45A6.25,6.25,0,0,0,212.12,208.41Z" style="fill:#263238"></path><path d="M172.23,205.14l13.43,4.1c14.73-1,10.2-19.69,10.2-19.69l1.46-9.88c.49-3.35-1.88-6.66-5.61-7.83l-9.37-2.94c-4.27-1.34-8.76.6-9.94,4.29l-2.67,8.29a15.43,15.43,0,0,0-.48,7.48Z" style="fill:#e4897b"></path><path d="M272.39,276.16l-7,9.09,9.12,22.1a33.46,33.46,0,0,1-10.16,3.75,18,18,0,0,1-8.77-.44L259.24,286l-7.88-7.37,9.56-2.54Z" style="fill:#407BFF"></path><path d="M272.39,276.16l-7,9.09,9.12,22.1a33.46,33.46,0,0,1-10.16,3.75,18,18,0,0,1-8.77-.44L259.24,286l-7.88-7.37,9.56-2.54Z" style="fill:#fff;opacity:0.5"></path><polygon points="259.24 285.97 262.92 285.41 268.28 281.76 272.39 276.16 258.01 284.82 259.24 285.97" style="fill:#263238"></polygon><polygon points="255.11 282.11 264.33 276.09 260.92 276.06 258.01 276.83 252.89 280.03 255.11 282.11" style="fill:#263238"></polygon><polygon points="264.2 285.41 257.97 294.48 256.91 301.55 266.63 288.32 265.36 285.25 264.2 285.41" style="fill:#263238"></polygon><path d="M255.75,309.29l13.12-15.54,1.46,3.54-12.24,14a15.37,15.37,0,0,1-2.54-.59Z" style="fill:#263238"></path><path d="M271.67,300.53l-8.31,10.72a25,25,0,0,0,4.92-1.16l4.91-5.87Z" style="fill:#263238"></path><path d="M253.38,287.44c2.17-8.35,7.93-11.49,7.93-11.49-5.82-4.45-6.7-13.48-6.67-18.78v-.1c0-.2,0-.4,0-.59a23.73,23.73,0,0,0-.22-3.19,28.59,28.59,0,0,0-8.41,6.78C244.4,263.16,245.44,285.44,253.38,287.44Z" style="fill:#263238"></path><path d="M261.31,276s7.39,4.33,15.65,8.28c7.31-7.49,23.93-26.5,19.15-37.19-2.32-2.8-11.42-2-11.42-2S279.58,260.09,261.31,276Z" style="fill:#263238"></path><g style="opacity:0.2"><path d="M261.31,276s7.39,4.33,15.65,8.28c7.31-7.49,23.93-26.5,19.15-37.19-2.32-2.8-11.42-2-11.42-2S279.58,260.09,261.31,276Z" style="fill:#fff"></path><path d="M253.38,287.44c2.17-8.35,7.93-11.49,7.93-11.49-5.82-4.45-6.7-13.48-6.67-18.78v-.1c0-.2,0-.4,0-.59a23.73,23.73,0,0,0-.22-3.19,28.59,28.59,0,0,0-8.41,6.78C244.4,263.16,245.44,285.44,253.38,287.44Z" style="fill:#fff"></path></g><polygon points="226.25 362.5 242.44 377.65 252.63 358.39 270.75 372.15 280.23 352.48 297 365.74 306.94 346.15 325.29 358.28 332.62 340.56 350.84 354.76 351.98 361.26 333.68 347.26 326.65 365.01 308.46 353.07 298.63 372.48 280.76 358.52 272.29 378.35 253.72 363.48 243.72 382.55 227.65 367.79 226.25 362.5" style="fill:#fff;opacity:0.30000000000000004"></polygon><path d="M290.73,375.85l3.4,13.62c-1.73,14.66-20.19,9.18-20.19,9.18l-9.94,1c-3.37.32-6.55-2.22-7.53-6l-2.45-9.5c-1.12-4.34,1-8.72,4.79-9.71l8.42-2.24a15.31,15.31,0,0,1,7.49-.09Z" style="fill:#e4897b"></path><polygon points="289.12 375.46 310.24 368.83 315.2 385.64 293.79 391.38 289.12 375.46" style="fill:#e4897b"></polygon><path d="M329,248.66c-15.77-2.77-9.37,33,1.07,47.25,6.09,9.08,8.56,11.19,12.28,17.73,13.23,23.24,15,32.17,15,32.17-5.33,3.51-66.25,25.82-66.25,25.82l8.3,24s91-13.74,91.92-42.45c.81-24.36-8.36-42.67-25.46-68.91C345.71,253.36,338.89,250.39,329,248.66Z" style="fill:#407BFF"></path><path d="M357.31,345.81l13.06-5.68L350,327.84C354.45,336.82,355.89,339.74,357.31,345.81Z" style="opacity:0.2"></path></g><g id="freepik--Doodles--inject-6"><path d="M319.13,143.82c-3.86,0-6.49-2.24-6.85-5.86-.1-2.29.05-5.12,2.19-6.82a3.55,3.55,0,0,1,5.8,2.68c.11,2-.29,3.49-1.11,4.31a2.15,2.15,0,0,1-1.65.63c-1.73-.1-2.2-.88-2.38-2a2.37,2.37,0,0,1,1.16-2.43l.25.44a1.86,1.86,0,0,0-.92,1.94c.13.79.36,1.47,1.92,1.56a1.6,1.6,0,0,0,1.27-.49c.71-.7,1.06-2.13,1-3.92a3,3,0,0,0-1.77-2.73,3.1,3.1,0,0,0-3.22.42c-2,1.55-2.1,4.23-2,6.38.33,3.33,2.77,5.4,6.35,5.4A5.09,5.09,0,0,0,323,141a10.08,10.08,0,0,0,1.79-8.36,13.07,13.07,0,0,0-6.77-7.68,7.59,7.59,0,0,0-6.63,0c-5.66,2.8-5.12,7.71-4,12.91l-.49.11c-.88-4.09-2.22-10.26,4.26-13.47a8.07,8.07,0,0,1,7.05,0,13.38,13.38,0,0,1,7.05,8,10.61,10.61,0,0,1-1.87,8.8A5.57,5.57,0,0,1,319.13,143.82Z" style="fill:#407BFF"></path><path d="M215.82,104.19a10.09,10.09,0,0,1-6.8-2.62,8.16,8.16,0,0,1-.55-11.52,6.59,6.59,0,0,1,9.28-.45,5.31,5.31,0,0,1,.36,7.5,4.31,4.31,0,0,1-6.07.29,3.53,3.53,0,0,1-.23-4.92,2.75,2.75,0,0,1,1.94-1,2.88,2.88,0,0,1,2.07.8,2.35,2.35,0,0,1,.16,3.28,2,2,0,0,1-1.32.63,1.89,1.89,0,0,1-1.38-.5,1.58,1.58,0,0,1-.11-2.22l.37.33a1.08,1.08,0,0,0,.08,1.52,1.42,1.42,0,0,0,2-.09,1.86,1.86,0,0,0,.47-1.31,1.82,1.82,0,0,0-.6-1.26,2.44,2.44,0,0,0-1.71-.69,2.29,2.29,0,0,0-1.59.84,3,3,0,0,0,.2,4.22,3.79,3.79,0,0,0,5.36-.26,4.81,4.81,0,0,0-.33-6.79,6.07,6.07,0,0,0-8.57.42,7.56,7.56,0,0,0-2,5.51,7.64,7.64,0,0,0,2.5,5.3,9.64,9.64,0,0,0,13.6-.66l.37.33a10,10,0,0,1-7,3.31Z" style="fill:#407BFF"></path><path d="M242.82,139.19l1.53-5.38-5-3.38,6.11-.35.89-3.13,1.36,3,5-.29-3.56,3.45,2.47,5.51-4.82-3.23Zm2-5.09-1,3.44,2.5-2.42Zm2.31,1,3.28,2.19-1.68-3.75Zm-2.17-1.45,1.74,1.16,1.81-1.75-1.14-2.53-1.54.08Zm-4.11-2.75,3.68,2.46.77-2.72Zm7.06-.4,1,2.19,2.47-2.39Zm-1.47-2-.47,1.65,1.18-.06Z" style="fill:#407BFF"></path><path d="M143.12,157.07l.06-5.6-5.76-1.93,5.81-1.94,0-3.26,2.1,2.55,4.73-1.59-2.52,4.27,3.83,4.66-5.5-1.85Zm.56-5.43,0,3.57,1.77-3Zm2.48.3,3.75,1.26L147.29,150Zm-2.47-.83,2,.67,1.29-2.17-1.77-2.14-1.47.49Zm-4.7-1.57,4.2,1.41,0-2.82Zm6.71-2.24,1.53,1.86,1.75-3Zm-1.95-1.59,0,1.72,1.12-.37Z" style="fill:#407BFF"></path><path d="M286.79,204.06l-2.36-5.3-5.33,1.12,4.16-3.73-2.47-5.56,5.36,3,2.42-2.17-.46,3.26,4.37,2.42-4.85,1Zm-1.86-5.4,1.6,3.61.58-4.07Zm-1.45-2L280.82,199l3.4-.71Zm.39-.35.85,1.91,2.46-.52.39-2.75-1.35-.75Zm4.17-1.1-.34,2.38,3.36-.7Zm-6.18-3.43,1.79,4.05,2.1-1.89Zm4.75,2.07,1,.57.24-1.72Z" style="fill:#407BFF"></path><path d="M290.9,146.94c-3.43-2.53-7.2-5-11.25-7.5,3.52-3.18,6.76-6.35,9.65-9.48,12.72-13.75,17.53-25.13,13.53-32.05s-16.25-8.44-34.52-4.3c-14.82,3.36-32.2,10.12-49.92,19.33-19.13-5.74-37.47-9.13-52.66-9.66-18.71-.64-30.47,3.14-33.11,10.68s4.22,17.82,19.29,29c3.43,2.53,7.2,5,11.25,7.51-3.52,3.18-6.76,6.35-9.65,9.47C140.79,173.64,136,185,140,191.94c2.48,4.31,8.31,6.59,16.85,6.59a81.76,81.76,0,0,0,17.67-2.29c14.82-3.36,32.2-10.11,49.92-19.33,19.13,5.75,37.47,9.13,52.65,9.66,1.38.05,2.75.08,4.07.08,16.31,0,26.63-3.82,29-10.75C312.81,168.36,306,158.08,290.9,146.94Zm-13.79,38.63c-14.85-.51-32.73-3.78-51.43-9.32q5.23-2.76,10.48-5.77a260.74,260.74,0,0,0,42.72-30.34c4.12,2.5,7.95,5,11.43,7.61,14.68,10.85,21.4,20.73,18.93,27.82S295.36,186.22,277.11,185.57Zm-115.4-81.36c15.35,0,35,3.37,55.41,9.4-3.49,1.84-7,3.75-10.47,5.77a260.55,260.55,0,0,0-42.74,30.35c-21.29-12.87-33.54-26.26-30.34-35.44C135.83,107.79,145.83,104.21,161.71,104.21Zm3.08,46.05a262.12,262.12,0,0,1,42.36-30q5.67-3.27,11.33-6.21c4.08,1.22,8.2,2.55,12.31,4A260.08,260.08,0,0,1,278,139.6a261.26,261.26,0,0,1-42.34,30c-3.78,2.19-7.57,4.26-11.34,6.23q-6.12-1.84-12.3-4A261.11,261.11,0,0,1,164.79,150.26Zm66.33-33.19q-5.7-2-11.36-3.71c25.5-13.13,50.06-21,66.21-21,8.17,0,13.7,2.11,16,6.08,4.86,8.43-4.69,23.87-23.19,40.49A260.45,260.45,0,0,0,231.12,117.07Zm-19.43,55.72c3.8,1.32,7.6,2.55,11.36,3.7-17.33,8.94-34.29,15.49-48.77,18.78-17.81,4-29.68,2.67-33.44-3.83C136,183,145.53,167.58,164,151A260.45,260.45,0,0,0,211.69,172.79Z" style="fill:#407BFF"></path><polygon points="141.11 110.5 154.16 122.61 156.74 120.8 167.44 127.73 155.92 114.58 152.7 117.55 141.11 110.5" style="fill:#407BFF"></polygon><polygon points="306.14 207.66 319.19 219.76 321.77 217.96 332.48 224.89 320.96 211.74 317.74 214.71 306.14 207.66" style="fill:#407BFF"></polygon><polygon points="329.02 102.49 315.96 114.59 313.38 112.78 302.68 119.72 314.2 106.57 317.42 109.53 329.02 102.49" style="fill:#407BFF"></polygon><polygon points="154.28 202.27 141.22 214.38 138.64 212.57 127.94 219.5 139.46 206.35 142.68 209.32 154.28 202.27" style="fill:#407BFF"></polygon></g><g id="freepik--Table--inject-6"><rect x="80.03" y="399.65" width="338.98" height="15.8" style="fill:#407BFF"></rect><rect x="80.03" y="399.65" width="338.98" height="15.8" style="fill:#fafafa;opacity:0.2"></rect><path d="M424.07,399.65H75.93a4,4,0,0,0-4,4h0a3.94,3.94,0,0,0,4,3.95H424.07A3.94,3.94,0,0,0,428,403.6h0A4,4,0,0,0,424.07,399.65Z" style="fill:#407BFF"></path><path d="M424.07,399.65H75.93a4,4,0,0,0-4,4h0a3.94,3.94,0,0,0,4,3.95H424.07A3.94,3.94,0,0,0,428,403.6h0A4,4,0,0,0,424.07,399.65Z" style="fill:#fafafa;opacity:0.4"></path></g><g id="freepik--Drink--inject-6"><path d="M164.81,399.45l-21.68,0V393c.15-6.25-1.88-16.12-3.64-25.56-1.51-3.67.21-14.57,1.36-24.17l26.81,0c1.18,9.33,3,19.81,1.36,24.17-2.26,10.06-4.65,20.36-4.21,25.57Z" style="fill:#407BFF"></path><path d="M164.81,399.45l-21.68,0V393c.15-6.25-1.88-16.12-3.64-25.56-1.51-3.67.21-14.57,1.36-24.17l26.81,0c1.18,9.33,3,19.81,1.36,24.17-2.26,10.06-4.65,20.36-4.21,25.57Z" style="fill:#fff;opacity:0.6000000000000001"></path><path d="M163.58,397.8l-19.14,0v-5.77c.12-5.51-1.66-14.23-3.22-22.56-.81-4.21-.85-7,.17-15.45l25.75,0c1,8.23,1,10,.14,15.45-2,8.88-4.1,18-3.71,22.57Z" style="fill:#407BFF;opacity:0.7000000000000001"></path><polygon points="141.38 354.05 167.14 354.02 166.02 343.19 142.6 343.22 141.38 354.05" style="fill:#fff;opacity:0.5"></polygon><circle cx="147.31" cy="357.42" r="0.98" style="fill:#407BFF"></circle><circle cx="147.31" cy="357.42" r="0.98" style="fill:#fff;opacity:0.4"></circle><path d="M154.26,364.55a1,1,0,1,1-1-1A1,1,0,0,1,154.26,364.55Z" style="fill:#407BFF"></path><path d="M154.26,364.55a1,1,0,1,1-1-1A1,1,0,0,1,154.26,364.55Z" style="fill:#fff;opacity:0.4"></path><circle cx="164.38" cy="355.66" r="0.98" style="fill:#407BFF"></circle><circle cx="164.38" cy="355.66" r="0.98" style="fill:#fff;opacity:0.4"></circle><circle cx="154.55" cy="356.45" r="0.98" style="fill:#407BFF"></circle><circle cx="154.55" cy="356.45" r="0.98" style="fill:#fff;opacity:0.4"></circle><circle cx="142.78" cy="363.11" r="0.98" style="fill:#407BFF"></circle><circle cx="142.78" cy="363.11" r="0.98" style="fill:#fff;opacity:0.4"></circle><circle cx="162" cy="367.1" r="0.98" style="fill:#407BFF"></circle><circle cx="162" cy="367.1" r="0.98" style="fill:#fff;opacity:0.4"></circle><circle cx="146.33" cy="371.33" r="0.98" style="fill:#407BFF"></circle><circle cx="146.33" cy="371.33" r="0.98" style="fill:#fff;opacity:0.4"></circle><path d="M147.09,365.76a.61.61,0,1,1-.61-.62A.61.61,0,0,1,147.09,365.76Z" style="fill:#407BFF"></path><path d="M147.09,365.76a.61.61,0,1,1-.61-.62A.61.61,0,0,1,147.09,365.76Z" style="fill:#fff;opacity:0.4"></path><path d="M147.71,362.5a.62.62,0,0,1-1.23,0,.62.62,0,1,1,1.23,0Z" style="fill:#407BFF"></path><path d="M147.71,362.5a.62.62,0,0,1-1.23,0,.62.62,0,1,1,1.23,0Z" style="fill:#fff;opacity:0.4"></path><path d="M151.25,360.13a.61.61,0,1,1-1.22,0,.61.61,0,1,1,1.22,0Z" style="fill:#407BFF"></path><path d="M151.25,360.13a.61.61,0,1,1-1.22,0,.61.61,0,1,1,1.22,0Z" style="fill:#fff;opacity:0.4"></path><circle cx="158.86" cy="370.35" r="0.61" style="fill:#407BFF"></circle><circle cx="158.86" cy="370.35" r="0.61" style="fill:#fff;opacity:0.4"></circle><path d="M162.61,375.92a.61.61,0,0,1-.61.62.62.62,0,0,1-.62-.62.61.61,0,0,1,.62-.61A.61.61,0,0,1,162.61,375.92Z" style="fill:#407BFF"></path><path d="M162.61,375.92a.61.61,0,0,1-.61.62.62.62,0,0,1-.62-.62.61.61,0,0,1,.62-.61A.61.61,0,0,1,162.61,375.92Z" style="fill:#fff;opacity:0.4"></path><path d="M163.23,359a.61.61,0,0,1-.62.61A.61.61,0,0,1,162,359a.61.61,0,0,1,.61-.62A.62.62,0,0,1,163.23,359Z" style="fill:#407BFF"></path><path d="M163.23,359a.61.61,0,0,1-.62.61A.61.61,0,0,1,162,359a.61.61,0,0,1,.61-.62A.62.62,0,0,1,163.23,359Z" style="fill:#fff;opacity:0.4"></path><circle cx="140.62" cy="342.15" r="1.03" style="fill:#407BFF"></circle><circle cx="140.62" cy="342.15" r="1.03" style="fill:#fff;opacity:0.4"></circle><circle cx="143.85" cy="339.08" r="1.03" style="fill:#407BFF"></circle><circle cx="143.85" cy="339.08" r="1.03" style="fill:#fff;opacity:0.4"></circle><path d="M146.26,338.87a.82.82,0,1,1-.82-.82A.82.82,0,0,1,146.26,338.87Z" style="fill:#407BFF"></path><path d="M146.26,338.87a.82.82,0,1,1-.82-.82A.82.82,0,0,1,146.26,338.87Z" style="fill:#fff;opacity:0.4"></path><circle cx="149.61" cy="339.69" r="1.03" style="fill:#407BFF"></circle><circle cx="149.61" cy="339.69" r="1.03" style="fill:#fff;opacity:0.4"></circle><circle cx="153.93" cy="341.12" r="1.03" style="fill:#407BFF"></circle><circle cx="153.93" cy="341.12" r="1.03" style="fill:#fff;opacity:0.4"></circle><circle cx="162.24" cy="339.08" r="1.03" style="fill:#407BFF"></circle><circle cx="162.24" cy="339.08" r="1.03" style="fill:#fff;opacity:0.4"></circle><circle cx="142.78" cy="341.35" r="1.84" style="fill:#407BFF"></circle><circle cx="142.78" cy="341.35" r="1.84" style="fill:#fff;opacity:0.4"></circle><circle cx="147.57" cy="338.66" r="1.84" style="fill:#407BFF"></circle><circle cx="147.57" cy="338.66" r="1.84" style="fill:#fff;opacity:0.4"></circle><circle cx="151.95" cy="339.51" r="1.84" style="fill:#407BFF"></circle><circle cx="151.95" cy="339.51" r="1.84" style="fill:#fff;opacity:0.4"></circle><circle cx="156.39" cy="340.49" r="1.84" style="fill:#407BFF"></circle><circle cx="156.39" cy="340.49" r="1.84" style="fill:#fff;opacity:0.4"></circle><circle cx="159.81" cy="340.49" r="1.84" style="fill:#407BFF"></circle><circle cx="159.81" cy="340.49" r="1.84" style="fill:#fff;opacity:0.4"></circle><circle cx="164.38" cy="340.11" r="1.84" style="fill:#407BFF"></circle><circle cx="164.38" cy="340.11" r="1.84" style="fill:#fff;opacity:0.4"></circle><circle cx="167.14" cy="341.35" r="1.84" style="fill:#407BFF"></circle><circle cx="167.14" cy="341.35" r="1.84" style="fill:#fff;opacity:0.4"></circle><polygon points="140.84 343.22 167.65 343.18 167.55 340.92 162.55 339.08 158.89 340.49 153.57 340.92 151.35 339.51 147.57 338.66 144.04 339.08 140.84 343.22" style="fill:#407BFF"></polygon><polygon points="140.84 343.22 167.65 343.18 167.55 340.92 162.55 339.08 158.89 340.49 153.57 340.92 151.35 339.51 147.57 338.66 144.04 339.08 140.84 343.22" style="fill:#fff;opacity:0.4"></polygon></g></svg>
